<svg viewBox="0 0 1000 1000" xmlns="http://www.w3.org/2000/svg"><rect width="1000" height="1000" fill="#004225"/><text x="500.0" y="651.1050730091825" text-anchor="middle" fill="#FFFFFF" font-family="Georgia, serif" font-size="32" letter-spacing="13">ANNO 1860</text><rect x="185.0" y="640.1050730091825" width="110" height="2" fill="#FFFFFF"/><rect x="705.0" y="640.1050730091825" width="110" height="2" fill="#FFFFFF"/><g fill="#FFFFFF" transform="translate(180.00 591.11) scale(0.06744 -0.09634)"><path transform="translate(0.00 0)" d="M739 708V689Q705 680 663.5 656.0Q622 632 575 579L391 370L472 476L709 81Q722 60 735.0 46.0Q748 32 770 20V0Q728 2 680.5 2.5Q633 3 590 3Q567 3 533.0 2.5Q499 2 447 0V20Q494 22 501.5 31.0Q509 40 494 65L349 310Q339 328 331.0 337.0Q323 346 315.5 350.0Q308 354 296 355V376Q340 378 379.0 405.5Q418 433 473 495L507 533Q549 580 551.5 614.5Q554 649 530.5 668.5Q507 688 469 689V708Q497 707 521.5 706.5Q546 706 573.5 705.5Q601 705 638 705Q670 705 694.5 706.0Q719 707 739 708ZM373 708V688Q343 687 327.5 680.5Q312 674 307.0 656.5Q302 639 302 602V106Q302 70 307.5 52.0Q313 34 328.0 28.0Q343 22 373 20V0Q344 2 298.5 2.5Q253 3 206 3Q152 3 104.5 2.5Q57 2 28 0V20Q59 22 74.0 28.0Q89 34 94.0 52.0Q99 70 99 106V602Q99 639 94.0 656.5Q89 674 73.5 680.5Q58 687 28 688V708Q57 707 104.5 706.0Q152 705 206 705Q253 705 298.5 706.0Q344 707 373 708Z"/><path transform="translate(754.00 0)" d="M383 708V688Q349 687 331.5 680.5Q314 674 308.0 656.5Q302 639 302 602V86Q302 59 306.0 45.5Q310 32 321.0 27.5Q332 23 353 23H386Q412 23 442.0 43.0Q472 63 500.5 98.0Q529 133 550.0 177.5Q571 222 580 270H603Q600 234 600 178Q600 152 601.0 102.5Q602 53 607 0Q556 2 492.0 2.5Q428 3 378 3Q351 3 309.5 3.0Q268 3 219.5 2.5Q171 2 121.5 1.5Q72 1 28 0V20Q59 22 74.0 28.0Q89 34 94.0 52.0Q99 70 99 106V602Q99 639 94.0 656.5Q89 674 73.5 680.5Q58 687 28 688V708Q57 707 104.5 706.0Q152 705 206 705Q256 705 304.0 706.0Q352 707 383 708Z"/><path transform="translate(1380.00 0)" d="M414 722Q527 722 612.0 679.0Q697 636 744.0 555.5Q791 475 791 360Q791 248 743.0 164.0Q695 80 609.5 33.0Q524 -14 413 -14Q300 -14 215.0 29.0Q130 72 83.0 153.0Q36 234 36 348Q36 460 84.5 544.0Q133 628 218.0 675.0Q303 722 414 722ZM410 704Q360 704 323.0 659.0Q286 614 266.0 535.0Q246 456 246 352Q246 246 269.0 167.5Q292 89 331.0 46.5Q370 4 417 4Q467 4 504.0 49.0Q541 94 561.0 173.5Q581 253 581 356Q581 463 558.0 541.0Q535 619 496.0 661.5Q457 704 410 704Z"/><path transform="translate(2207.00 0)" d="M739 708V689Q705 680 663.5 656.0Q622 632 575 579L391 370L472 476L709 81Q722 60 735.0 46.0Q748 32 770 20V0Q728 2 680.5 2.5Q633 3 590 3Q567 3 533.0 2.5Q499 2 447 0V20Q494 22 501.5 31.0Q509 40 494 65L349 310Q339 328 331.0 337.0Q323 346 315.5 350.0Q308 354 296 355V376Q340 378 379.0 405.5Q418 433 473 495L507 533Q549 580 551.5 614.5Q554 649 530.5 668.5Q507 688 469 689V708Q497 707 521.5 706.5Q546 706 573.5 705.5Q601 705 638 705Q670 705 694.5 706.0Q719 707 739 708ZM373 708V688Q343 687 327.5 680.5Q312 674 307.0 656.5Q302 639 302 602V106Q302 70 307.5 52.0Q313 34 328.0 28.0Q343 22 373 20V0Q344 2 298.5 2.5Q253 3 206 3Q152 3 104.5 2.5Q57 2 28 0V20Q59 22 74.0 28.0Q89 34 94.0 52.0Q99 70 99 106V602Q99 639 94.0 656.5Q89 674 73.5 680.5Q58 687 28 688V708Q57 707 104.5 706.0Q152 705 206 705Q253 705 298.5 706.0Q344 707 373 708Z"/><path transform="translate(2961.00 0)" d="M739 708V689Q705 680 663.5 656.0Q622 632 575 579L391 370L472 476L709 81Q722 60 735.0 46.0Q748 32 770 20V0Q728 2 680.5 2.5Q633 3 590 3Q567 3 533.0 2.5Q499 2 447 0V20Q494 22 501.5 31.0Q509 40 494 65L349 310Q339 328 331.0 337.0Q323 346 315.5 350.0Q308 354 296 355V376Q340 378 379.0 405.5Q418 433 473 495L507 533Q549 580 551.5 614.5Q554 649 530.5 668.5Q507 688 469 689V708Q497 707 521.5 706.5Q546 706 573.5 705.5Q601 705 638 705Q670 705 694.5 706.0Q719 707 739 708ZM373 708V688Q343 687 327.5 680.5Q312 674 307.0 656.5Q302 639 302 602V106Q302 70 307.5 52.0Q313 34 328.0 28.0Q343 22 373 20V0Q344 2 298.5 2.5Q253 3 206 3Q152 3 104.5 2.5Q57 2 28 0V20Q59 22 74.0 28.0Q89 34 94.0 52.0Q99 70 99 106V602Q99 639 94.0 656.5Q89 674 73.5 680.5Q58 687 28 688V708Q57 707 104.5 706.0Q152 705 206 705Q253 705 298.5 706.0Q344 707 373 708Z"/><path transform="translate(3715.00 0)" d="M398 708 640 84Q654 50 670.0 35.5Q686 21 699 20V0Q663 2 615.0 2.5Q567 3 517 3Q466 3 421.0 2.5Q376 2 349 0V20Q400 22 413.5 37.5Q427 53 407 104L247 547L267 582L129 223Q104 158 98.5 118.5Q93 79 103.0 58.0Q113 37 135.0 29.0Q157 21 187 20V0Q150 2 120.5 2.5Q91 3 56 3Q37 3 15.5 2.5Q-6 2 -21 0V20Q2 24 24.5 49.5Q47 75 71 137L293 708Q317 706 345.5 706.0Q374 706 398 708ZM433 288V268H135L145 288Z"/><path transform="translate(4407.00 0)" d="M28 708Q57 707 104.5 706.0Q152 705 200 705Q250 705 296.0 706.0Q342 707 361 707Q463 707 529.5 688.0Q596 669 629.0 630.5Q662 592 662 533Q662 496 647.0 461.0Q632 426 596.0 397.5Q560 369 497.5 352.5Q435 336 339 336H243V356H329Q380 356 406.5 378.5Q433 401 442.5 438.5Q452 476 452 522Q452 601 430.5 644.5Q409 688 356 688Q322 688 312.0 671.0Q302 654 302 602V106Q302 70 307.5 52.0Q313 34 328.0 28.0Q343 22 373 20V0Q344 2 298.5 2.5Q253 3 206 3Q152 3 104.5 2.5Q57 2 28 0V20Q59 22 74.0 28.0Q89 34 94.0 52.0Q99 70 99 106V602Q99 639 94.0 656.5Q89 674 73.5 680.5Q58 687 28 688ZM237 353Q273 352 305.0 349.0Q337 346 364.0 343.5Q391 341 410 340Q517 335 570.5 303.0Q624 271 636 209L657 105Q665 68 675.0 54.0Q685 40 702 40Q712 40 719.0 43.0Q726 46 733 53L746 40Q715 9 678.5 -2.5Q642 -14 596 -14Q531 -14 491.0 9.5Q451 33 442 94L427 194Q421 235 412.0 267.0Q403 299 388.0 317.5Q373 336 347 336H239Z"/><path transform="translate(5128.00 0)" d="M424 722Q494 722 539.0 703.0Q584 684 618 657Q629 648 638 648Q657 648 663 708H686Q684 668 683.0 610.5Q682 553 682 458H659Q652 530 634.5 578.5Q617 627 567 661Q546 675 518.0 683.0Q490 691 464 691Q406 691 368.0 659.5Q330 628 307.5 577.5Q285 527 275.5 467.5Q266 408 266 352Q266 172 310.0 89.0Q354 6 427 6Q443 6 455.0 9.0Q467 12 476 18Q487 26 492.0 38.0Q497 50 497 68V168Q497 217 489.5 241.0Q482 265 460.0 274.0Q438 283 396 284V304Q419 303 452.0 302.5Q485 302 521.0 301.5Q557 301 587 301Q635 301 675.5 302.0Q716 303 741 304V284Q724 283 715.0 277.0Q706 271 703.0 253.0Q700 235 700 198V0H680Q679 17 672.0 37.0Q665 57 649 57Q641 57 626.5 53.0Q612 49 581 34Q542 15 498.5 0.5Q455 -14 412 -14Q287 -14 203.0 29.0Q119 72 77.5 153.0Q36 234 36 348Q36 460 85.5 544.0Q135 628 222.5 675.0Q310 722 424 722Z"/><path transform="translate(5884.00 0)" d="M398 708 640 84Q654 50 670.0 35.5Q686 21 699 20V0Q663 2 615.0 2.5Q567 3 517 3Q466 3 421.0 2.5Q376 2 349 0V20Q400 22 413.5 37.5Q427 53 407 104L247 547L267 582L129 223Q104 158 98.5 118.5Q93 79 103.0 58.0Q113 37 135.0 29.0Q157 21 187 20V0Q150 2 120.5 2.5Q91 3 56 3Q37 3 15.5 2.5Q-6 2 -21 0V20Q2 24 24.5 49.5Q47 75 71 137L293 708Q317 706 345.5 706.0Q374 706 398 708ZM433 288V268H135L145 288Z"/><path transform="translate(6576.00 0)" d="M28 708Q57 707 104.5 706.0Q152 705 200 705Q250 705 296.0 706.0Q342 707 361 707Q463 707 529.5 688.0Q596 669 629.0 630.5Q662 592 662 533Q662 496 647.0 461.0Q632 426 596.0 397.5Q560 369 497.5 352.5Q435 336 339 336H243V356H329Q380 356 406.5 378.5Q433 401 442.5 438.5Q452 476 452 522Q452 601 430.5 644.5Q409 688 356 688Q322 688 312.0 671.0Q302 654 302 602V106Q302 70 307.5 52.0Q313 34 328.0 28.0Q343 22 373 20V0Q344 2 298.5 2.5Q253 3 206 3Q152 3 104.5 2.5Q57 2 28 0V20Q59 22 74.0 28.0Q89 34 94.0 52.0Q99 70 99 106V602Q99 639 94.0 656.5Q89 674 73.5 680.5Q58 687 28 688ZM237 353Q273 352 305.0 349.0Q337 346 364.0 343.5Q391 341 410 340Q517 335 570.5 303.0Q624 271 636 209L657 105Q665 68 675.0 54.0Q685 40 702 40Q712 40 719.0 43.0Q726 46 733 53L746 40Q715 9 678.5 -2.5Q642 -14 596 -14Q531 -14 491.0 9.5Q451 33 442 94L427 194Q421 235 412.0 267.0Q403 299 388.0 317.5Q373 336 347 336H239Z"/><path transform="translate(7297.00 0)" d="M361 708Q571 708 672.5 618.5Q774 529 774 362Q774 253 724.0 171.5Q674 90 579.5 45.0Q485 0 352 0Q336 0 309.5 1.0Q283 2 254.0 2.5Q225 3 202 3Q152 3 104.5 2.5Q57 2 28 0V20Q59 22 74.0 28.0Q89 34 94.0 52.0Q99 70 99 106V602Q99 639 94.0 656.5Q89 674 73.5 680.5Q58 687 28 688V708Q57 707 104.5 705.5Q152 704 200 705Q237 706 283.5 707.0Q330 708 361 708ZM376 690Q330 690 316.0 673.0Q302 656 302 604V104Q302 52 316.5 35.0Q331 18 377 18Q445 18 486.0 57.5Q527 97 545.5 173.0Q564 249 564 358Q564 470 544.5 543.5Q525 617 483.5 653.5Q442 690 376 690Z"/><path transform="translate(8108.00 0)" d="M587 708Q583 658 581.5 611.5Q580 565 580 540Q580 519 581.0 500.0Q582 481 583 468H560Q548 551 520.0 598.5Q492 646 454.5 665.5Q417 685 376 685H363Q337 685 324.0 680.5Q311 676 306.5 663.0Q302 650 302 622V86Q302 59 306.5 45.5Q311 32 324.0 27.5Q337 23 363 23H396Q429 23 465.5 44.5Q502 66 533.0 118.0Q564 170 580 260H603Q600 224 600 168Q600 143 601.0 96.5Q602 50 607 0Q556 2 492.0 2.5Q428 3 378 3Q351 3 309.5 3.0Q268 3 219.5 2.5Q171 2 121.5 1.5Q72 1 28 0V20Q59 22 74.0 28.0Q89 34 94.0 52.0Q99 70 99 106V602Q99 639 94.0 656.5Q89 674 73.5 680.5Q58 687 28 688V708Q72 707 121.5 706.5Q171 706 219.5 705.5Q268 705 309.5 705.0Q351 705 378 705Q424 705 482.5 705.5Q541 706 587 708ZM442 366Q442 366 442.0 356.0Q442 346 442 346H272Q272 346 272.0 356.0Q272 366 272 366ZM471 498Q467 441 467.5 411.0Q468 381 468 356Q468 331 469.0 301.0Q470 271 474 214H451Q445 251 426.5 281.0Q408 311 379.0 328.5Q350 346 312 346V366Q340 366 363.0 378.0Q386 390 403.5 410.0Q421 430 432.5 453.0Q444 476 448 498Z"/><path transform="translate(8758.00 0)" d="M708 708V688Q678 682 662.5 667.0Q647 652 642.0 620.5Q637 589 637 532V0Q622 2 604.5 2.0Q587 2 567 0L124 484V196Q124 129 129.5 93.5Q135 58 156.5 42.5Q178 27 225 20V0Q205 2 173.0 2.5Q141 3 113 3Q91 3 68.0 2.5Q45 2 30 0V20Q61 27 76.0 41.5Q91 56 96.0 88.0Q101 120 101 176V602Q101 639 96.0 656.5Q91 674 75.5 680.5Q60 687 30 688V708Q45 707 68.0 706.0Q91 705 113 705Q138 705 162.0 706.0Q186 707 205 708L614 276V512Q614 579 608.5 614.5Q603 650 582.0 666.0Q561 682 513 688V708Q533 707 565.0 706.0Q597 705 625 705Q648 705 670.5 706.0Q693 707 708 708Z"/></g></svg>
